<svg width="65" height="65" viewBox="0 0 65 65" fill="none" xmlns="http://www.w3.org/2000/svg">
<path d="M6.04297 38.1367L28.9834 59.5537C29.9355 60.4424 31.1924 60.9375 32.5 60.9375C33.8076 60.9375 35.0645 60.4424 36.0166 59.5537L58.957 38.1367C62.8164 34.544 65 29.5039 65 24.2354V23.499C65 14.625 58.5889 7.0586 49.8418 5.59864C44.0527 4.6338 38.1621 6.5254 34.0234 10.6641L32.5 12.1875L30.9766 10.6641C26.8379 6.5254 20.9473 4.6338 15.1582 5.59864C6.41113 7.0586 0 14.625 0 23.499V24.2354C0 29.5039 2.18359 34.544 6.04297 38.1367Z" fill="#FF5959"/>
<g clip-path="url(#clip0_14_82464)">
<path d="M37.2459 19.3678C37.2459 18.0507 36.7227 16.7876 35.7913 15.8563C34.86 14.9249 33.5969 14.4017 32.2798 14.4017C30.9627 14.4017 29.6995 14.9249 28.7682 15.8563C27.8369 16.7876 27.3137 18.0507 27.3137 19.3678C27.3137 20.6849 27.8369 21.9481 28.7682 22.8794C29.6995 23.8107 30.9627 24.3339 32.2798 24.3339C33.5969 24.3339 34.86 23.8107 35.7913 22.8794C36.7227 21.9481 37.2459 20.6849 37.2459 19.3678ZM29.2458 27.5386C27.4068 26.8868 25.7928 25.6531 24.6832 23.9848L23.1701 21.7112C22.4096 20.5706 20.8732 20.2679 19.7248 21.0284C18.5764 21.7888 18.2738 23.333 19.0342 24.4736L20.5551 26.7394C21.9596 28.8422 23.8762 30.495 26.0721 31.5814V51.6475C26.0721 53.021 27.1817 54.1306 28.5552 54.1306C29.9286 54.1306 31.0382 53.021 31.0382 51.6475V44.1984H33.5213V51.6475C33.5213 53.021 34.6309 54.1306 36.0043 54.1306C37.3778 54.1306 38.4874 53.021 38.4874 51.6475V31.5969C40.7454 30.495 42.7086 28.7879 44.1286 26.6153L45.5408 24.4503C46.2857 23.3019 45.9598 21.7655 44.8114 21.0129C43.663 20.2602 42.1266 20.5861 41.3739 21.7423L39.9617 23.8994C38.2701 26.4911 35.3913 28.0585 32.2953 28.0585C31.3176 28.0585 30.3632 27.9033 29.4553 27.6085C29.3855 27.5852 29.3156 27.5542 29.2458 27.5386Z" fill="white"/>
</g>
<defs>
<clipPath id="clip0_14_82464">
<rect width="29.7966" height="39.7289" fill="white" transform="translate(17.3813 14.4017)"/>
</clipPath>
</defs>
</svg>
