<svg width="65" height="65" viewBox="0 0 65 65" fill="none" xmlns="http://www.w3.org/2000/svg">
<circle cx="32.5" cy="32.5" r="32.5" fill="#10CD00"/>
<g clip-path="url(#clip0_14_82469)">
<path d="M38 19.3511C38 18.0352 37.4732 16.7731 36.5355 15.8426C35.5978 14.912 34.3261 14.3893 33 14.3893C31.6739 14.3893 30.4021 14.912 29.4644 15.8426C28.5268 16.7731 28 18.0352 28 19.3511C28 20.6671 28.5268 21.9291 29.4644 22.8597C30.4021 23.7902 31.6739 24.3129 33 24.3129C34.3261 24.3129 35.5978 23.7902 36.5355 22.8597C37.4732 21.9291 38 20.6671 38 19.3511ZM29.9453 27.5149C28.0937 26.8636 26.4687 25.6309 25.3515 23.9641L23.8281 21.6925C23.0625 20.5528 21.5156 20.2504 20.3593 21.0102C19.2031 21.77 18.8984 23.3128 19.664 24.4525L21.1953 26.7163C22.6093 28.8174 24.539 30.4687 26.75 31.5541V51.603C26.75 52.9753 27.8672 54.0839 29.25 54.0839C30.6328 54.0839 31.75 52.9753 31.75 51.603V44.1603H34.25V51.603C34.25 52.9753 35.3672 54.0839 36.75 54.0839C38.1328 54.0839 39.25 52.9753 39.25 51.603V31.5696C41.5234 30.4687 43.5 28.7631 44.9297 26.5923L46.3515 24.4292C47.1015 23.2818 46.7734 21.7467 45.6172 20.9947C44.4609 20.2427 42.914 20.5683 42.1562 21.7235L40.7343 23.8788C39.0312 26.4682 36.1328 28.0343 33.0156 28.0343C32.0312 28.0343 31.0703 27.8793 30.1562 27.5847C30.0859 27.5614 30.0156 27.5304 29.9453 27.5149Z" fill="white"/>
</g>
<defs>
<clipPath id="clip0_14_82469">
<rect width="30" height="39.6947" fill="white" transform="translate(18 12.9008)"/>
</clipPath>
</defs>
</svg>
