<svg width="65" height="66" viewBox="0 0 65 66" fill="none" xmlns="http://www.w3.org/2000/svg">
<path d="M9.28571 0.142822C4.16406 0.142822 0 4.30688 0 9.42854V55.8571C0 60.9788 4.16406 65.1428 9.28571 65.1428H55.7143C60.8359 65.1428 65 60.9788 65 55.8571V9.42854C65 4.30688 60.8359 0.142822 55.7143 0.142822H9.28571Z" fill="#0046CD"/>
<path d="M45.9389 13.4476C47.3553 12.0312 47.3553 9.73092 45.9389 8.31451C44.5225 6.89809 42.2223 6.89809 40.8058 8.31451L25.248 23.8837L18.7438 17.3796C17.3274 15.9631 15.0271 15.9631 13.6107 17.3796C12.1943 18.796 12.1943 21.0962 13.6107 22.5126L22.6758 31.5777C24.0922 32.9941 26.3924 32.9941 27.8088 31.5777L45.9389 13.4476ZM56.817 27.9517C58.2334 26.5352 58.2334 24.235 56.817 22.8186C55.4006 21.4022 53.1003 21.4022 51.6839 22.8186L25.248 49.2658L13.3048 37.334C11.8884 35.9176 9.5881 35.9176 8.17168 37.334C6.75527 38.7504 6.75527 41.0507 8.17168 42.4671L22.6758 56.9711C24.0922 58.3875 26.3924 58.3875 27.8088 56.9711L56.817 27.963V27.9517Z" fill="white"/>
</svg>
