<svg width="65" height="66" viewBox="0 0 65 66" fill="none" xmlns="http://www.w3.org/2000/svg">
<rect x="11" y="12.5" width="44" height="41" fill="white"/>
<path d="M9.28571 0.142822C4.16406 0.142822 0 4.30688 0 9.42854V55.8571C0 60.9788 4.16406 65.1428 9.28571 65.1428H55.7143C60.8359 65.1428 65 60.9788 65 55.8571V9.42854C65 4.30688 60.8359 0.142822 55.7143 0.142822H9.28571ZM48.8951 25.8236L30.3237 44.3951C28.9598 45.7589 26.7545 45.7589 25.4051 44.3951L16.1194 35.1093C14.7556 33.7455 14.7556 31.5401 16.1194 30.1908C17.4833 28.8415 19.6886 28.827 21.0379 30.1908L27.8571 37.01L43.9621 20.8906C45.3259 19.5268 47.5312 19.5268 48.8806 20.8906C50.2299 22.2544 50.2444 24.4598 48.8806 25.8091L48.8951 25.8236Z" fill="#10CD00"/>
</svg>
