<svg width="65" height="65" viewBox="0 0 65 65" fill="none" xmlns="http://www.w3.org/2000/svg">
<circle cx="32.5" cy="32.5" r="32.5" fill="#9C9C9C"/>
<path d="M27.2988 19.75C27.2988 18.3576 27.8466 17.0223 28.8218 16.0377C29.797 15.0531 31.1197 14.5 32.4988 14.5C33.878 14.5 35.2006 15.0531 36.1758 16.0377C37.151 17.0223 37.6989 18.3576 37.6989 19.75C37.6989 21.1424 37.151 22.4777 36.1758 23.4623C35.2006 24.4469 33.878 25 32.4988 25C31.1197 25 29.797 24.4469 28.8218 23.4623C27.8466 22.4777 27.2988 21.1424 27.2988 19.75ZM31.1988 44.5V51.375C31.1988 52.827 30.0369 53 28.5988 53C27.1606 53 25.9988 52.827 25.9988 51.375V38.1086L24.3006 40.832C23.5369 42.0625 21.9281 42.4234 20.7174 41.6523C19.5068 40.8813 19.1331 39.2652 19.8968 38.043L23.1387 32.8504C25.1619 29.5937 28.6963 27.625 32.4988 27.625C36.3014 27.625 39.8358 29.5938 41.8589 32.8422L45.1009 38.043C45.8646 39.2734 45.499 40.8895 44.2884 41.6605C43.0777 42.4316 41.4689 42.0625 40.7052 40.8402L38.9989 38.1086V51.375C38.9989 52.827 37.837 53 36.3989 53C34.9607 53 33.7989 52.827 33.7989 51.375V44.5H31.1988Z" fill="white"/>
</svg>
