<svg width="65" height="66" viewBox="0 0 65 66" fill="none" xmlns="http://www.w3.org/2000/svg">
<rect x="11" y="12.5" width="44" height="41" fill="white"/>
<path d="M9.28571 0.142822C4.16406 0.142822 0 4.30688 0 9.42854V55.8571C0 60.9788 4.16406 65.1428 9.28571 65.1428H55.7143C60.8359 65.1428 65 60.9788 65 55.8571V9.42854C65 4.30688 60.8359 0.142822 55.7143 0.142822H9.28571ZM20.7478 20.8906C22.1116 19.5268 24.317 19.5268 25.6663 20.8906L32.4855 27.7098L39.3047 20.8906C40.6685 19.5268 42.8739 19.5268 44.2232 20.8906C45.5725 22.2544 45.5871 24.4598 44.2232 25.8091L37.404 32.6283L44.2232 39.4475C45.5871 40.8113 45.5871 43.0167 44.2232 44.366C42.8594 45.7154 40.654 45.7299 39.3047 44.366L32.4855 37.5468L25.6663 44.366C24.3025 45.7299 22.0971 45.7299 20.7478 44.366C19.3984 43.0022 19.3839 40.7968 20.7478 39.4475L27.567 32.6283L20.7478 25.8091C19.3839 24.4453 19.3839 22.2399 20.7478 20.8906Z" fill="#E00000"/>
</svg>
