<svg width="65" height="65" viewBox="0 0 65 65" fill="none" xmlns="http://www.w3.org/2000/svg">
<circle cx="32.5" cy="32.5" r="32.5" fill="#6D0276"/>
<g clip-path="url(#clip0_14_82455)">
<path d="M16.665 16.665L13.6436 13.6436C12.3017 12.3017 10 13.2525 10 15.1454V24.9297C10 26.1116 10.9509 27.0625 12.1328 27.0625H21.9171C23.8188 27.0625 24.7697 24.7608 23.4278 23.4189L20.6907 20.6818C23.7744 17.5981 28.04 15.6875 32.75 15.6875C42.1699 15.6875 49.8125 23.3301 49.8125 32.75C49.8125 42.1699 42.1699 49.8125 32.75 49.8125C29.1242 49.8125 25.765 48.6839 23.0013 46.7555C21.7127 45.8579 19.9442 46.1689 19.0378 47.4575C18.1313 48.7461 18.4513 50.5146 19.7398 51.421C23.4367 53.9893 27.9245 55.5 32.75 55.5C45.3158 55.5 55.5 45.3158 55.5 32.75C55.5 20.1842 45.3158 10 32.75 10C26.4671 10 20.7796 12.5505 16.665 16.665ZM32.75 21.375C31.5681 21.375 30.6172 22.3259 30.6172 23.5078V32.75C30.6172 33.3188 30.8394 33.8608 31.2393 34.2607L37.6377 40.6592C38.473 41.4945 39.8238 41.4945 40.6503 40.6592C41.4768 39.8238 41.4856 38.473 40.6503 37.6466L34.8739 31.8702V23.5078C34.8739 22.3259 33.923 21.375 32.7411 21.375H32.75Z" fill="white"/>
</g>
<defs>
<clipPath id="clip0_14_82455">
<rect width="45.5" height="45.5" fill="white" transform="translate(10 10)"/>
</clipPath>
</defs>
</svg>
