<svg width="65" height="65" viewBox="0 0 65 65" fill="none" xmlns="http://www.w3.org/2000/svg">
<circle cx="32.5" cy="32.5" r="32.5" transform="matrix(-1 0 0 1 65 0)" fill="#07E0D3"/>
<g clip-path="url(#clip0_14_82459)">
<path d="M48.335 16.665L51.3564 13.6436C52.6983 12.3017 55 13.2525 55 15.1454V24.9297C55 26.1116 54.0491 27.0625 52.8672 27.0625H43.0829C41.1812 27.0625 40.2303 24.7608 41.5722 23.4189L44.3093 20.6818C41.2256 17.5981 36.96 15.6875 32.25 15.6875C22.8301 15.6875 15.1875 23.3301 15.1875 32.75C15.1875 42.1699 22.8301 49.8125 32.25 49.8125C35.8758 49.8125 39.235 48.6839 41.9987 46.7555C43.2873 45.8579 45.0558 46.1689 45.9622 47.4575C46.8687 48.7461 46.5487 50.5146 45.2602 51.421C41.5633 53.9893 37.0755 55.5 32.25 55.5C19.6842 55.5 9.5 45.3158 9.5 32.75C9.5 20.1842 19.6842 10 32.25 10C38.5329 10 44.2204 12.5505 48.335 16.665Z" fill="white"/>
<path d="M30.6328 21.375C30.6313 21.375 30.6298 21.375 30.6284 21.375C31.8082 21.3774 32.7567 22.3274 32.7567 23.5078V31.8702L38.5331 37.6466C39.3685 38.473 39.3596 39.8238 38.5331 40.6592C37.7066 41.4945 36.3559 41.4945 35.5205 40.6592L29.1221 34.2607C28.7222 33.8608 28.5 33.3188 28.5 32.75V23.5078C28.5 22.3274 29.4485 21.3774 30.6284 21.375C30.6269 21.375 30.6254 21.375 30.6239 21.375H30.6328Z" fill="white"/>
</g>
<defs>
<clipPath id="clip0_14_82459">
<rect width="45.5" height="45.5" fill="white" transform="matrix(-1 0 0 1 55 10)"/>
</clipPath>
</defs>
</svg>
