<svg width="65" height="65" viewBox="0 0 65 65" fill="none" xmlns="http://www.w3.org/2000/svg">
<circle cx="32.5" cy="32.5" r="32.5" transform="matrix(-1 0 0 1 65 0)" fill="#FF54F8"/>
<path fill-rule="evenodd" clip-rule="evenodd" d="M32.4584 13C24.5153 13 16.012 18.0612 10.3172 23.2384C5.71203 27.425 2.57552 31.4597 1.5 32.9072C2.57552 34.3548 5.71203 38.3895 10.3172 42.5761C16.0118 47.7533 24.5153 52.8145 32.4584 52.8145C40.4015 52.8145 48.9048 47.7533 54.5996 42.5761C59.2047 38.3895 62.3412 34.3548 63.4167 32.9072C62.3412 31.4597 59.2047 27.425 54.5996 23.2384C48.9049 18.0612 40.4015 13 32.4584 13ZM33.3384 49.6504C42.6218 49.6504 50.1475 42.1247 50.1475 32.8413C50.1475 23.5579 42.6218 16.0322 33.3384 16.0322C24.055 16.0322 16.5293 23.5579 16.5293 32.8413C16.5293 42.1247 24.055 49.6504 33.3384 49.6504Z" fill="white"/>
<circle cx="43.7534" cy="24.0083" r="6.39404" fill="white"/>
</svg>
